<?xml version="1.0" standalone="no"?><svg xmlns:xlink="http://www.w3.org/1999/xlink" xmlns="http://www.w3.org/2000/svg" viewBox="0 0 1000 999.9999999999999" preserveAspectRatio="xMaxYMax slice"><g transform="scale(1.2062726176115801)"><rect x="0" y="0" width="829" height="829" fill="#ffffff"/><rect x="0" y="0" width="207.25" height="207.25" fill="#5a8ef8"/><polygon points="207.25,0 207.25,207.25 0,207.25" fill="#e1ebfe"/><rect x="207.25" y="0" width="207.25" height="207.25" fill="#76a1f9"/><polygon points="207.25,0 414.5,0 414.5,207.25" fill="#93b5fb"/><rect x="414.5" y="0" width="207.25" height="207.25" fill="#8eb2fa"/><polygon points="414.5,0 621.75,0 621.75,207.25" fill="#b3cbfc"/><rect x="621.75" y="0" width="207.25" height="207.25" fill="#80a8fa"/><polygon points="621.75,0 829,0 829,207.25" fill="#7c9ffa"/><rect x="0" y="207.25" width="207.25" height="207.25" fill="#5d90f8"/><polygon points="0,207.25 207.25,207.25 207.25,414.5" fill="#8aa9fb"/><rect x="207.25" y="207.25" width="207.25" height="207.25" fill="#e3ecfe"/><polygon points="207.25,207.25 414.5,207.25 207.25,414.5" fill="#648efa"/><rect x="414.5" y="207.25" width="207.25" height="207.25" fill="#2e66f8"/><polygon points="621.75,207.25 621.75,414.5 414.5,414.5" fill="#4c7cf9"/><rect x="621.75" y="207.25" width="207.25" height="207.25" fill="#6897f9"/><polygon points="621.75,207.25 829,207.25 829,414.5" fill="#77a2f9"/><rect x="0" y="414.5" width="207.25" height="207.25" fill="#4073f8"/><polygon points="0,414.5 207.25,621.75 0,621.75" fill="#c7d6fd"/><rect x="207.25" y="414.5" width="207.25" height="207.25" fill="#afc8fc"/><polygon points="207.25,414.5 414.5,621.75 207.25,621.75" fill="#d2e0fd"/><rect x="414.5" y="414.5" width="207.25" height="207.25" fill="#92b4fb"/><polygon points="414.5,414.5 621.75,621.75 414.5,621.75" fill="#a7bffc"/><rect x="621.75" y="414.5" width="207.25" height="207.25" fill="#a9c4fb"/><polygon points="621.75,414.5 829,414.5 621.75,621.75" fill="#bad0fc"/><rect x="0" y="621.75" width="207.25" height="207.25" fill="#c3d6fd"/><polygon points="0,621.75 207.25,621.75 207.25,829" fill="#3169f8"/><rect x="207.25" y="621.75" width="207.25" height="207.25" fill="#e2ebfe"/><polygon points="207.25,621.75 414.5,829 207.25,829" fill="#fefeff"/><rect x="414.5" y="621.75" width="207.25" height="207.25" fill="#8baafb"/><polygon points="414.5,621.75 621.75,621.75 414.5,829" fill="#6092f9"/><rect x="621.75" y="621.75" width="207.25" height="207.25" fill="#eaf1fe"/><polygon points="621.75,621.75 829,621.75 829,829" fill="#f0f4fe"/></g></svg>