<?xml version="1.0" standalone="no"?><svg xmlns:xlink="http://www.w3.org/1999/xlink" xmlns="http://www.w3.org/2000/svg" viewBox="0 0 1000 625.0047120379375" preserveAspectRatio="xMaxYMax slice"><g transform="scale(0.7539260700095748)"><rect x="0" y="0" width="1326.4" height="829" fill="#ffffff"/><rect x="269.43" y="20.73" width="41.45" height="41.45" fill="#9bbff9"/><polygon points="269.43,20.73 310.88,62.18000000000001 269.43,62.18000000000001" fill="#64a5f8"/><rect x="932.63" y="20.73" width="41.45" height="41.45" fill="#d5e4fd"/><polygon points="932.63,20.73 974.08,20.73 932.63,62.18000000000001" fill="#a5c5fa"/><rect x="683.9250000000001" y="103.625" width="41.45" height="41.45" fill="#ffffff"/><rect x="683.93" y="103.63" width="20.73" height="20.73" fill="#dbeafd"/><polygon points="683.93,103.63 704.66,103.63 683.93,124.36" fill="#86b1f8"/><rect x="704.65" y="103.63" width="20.73" height="20.73" fill="#a1c3fa"/><polygon points="725.38,103.63 725.38,124.36 704.65,124.36" fill="#c4ddfc"/><rect x="683.93" y="124.35" width="20.73" height="20.73" fill="#4d97f7"/><polygon points="683.93,124.35 704.66,124.35 683.93,145.07999999999998" fill="#dfeafd"/><rect x="704.65" y="124.35" width="20.73" height="20.73" fill="#9ec1fa"/><polygon points="704.65,124.35 725.38,124.35 725.38,145.07999999999998" fill="#a7ccfb"/><rect x="1181.33" y="103.63" width="41.45" height="41.45" fill="#8db6f9"/><polygon points="1181.33,103.63 1222.78,103.63 1181.33,145.07999999999998" fill="#79b1f9"/><rect x="20.725" y="269.425" width="41.45" height="41.45" fill="#ffffff"/><rect x="20.73" y="269.43" width="20.73" height="20.73" fill="#82aff8"/><polygon points="20.73,269.43 41.46,290.16 20.73,290.16" fill="#6aa0f7"/><rect x="41.45" y="269.43" width="20.73" height="20.73" fill="#619af6"/><polygon points="41.45,269.43 62.18000000000001,269.43 41.45,290.16" fill="#bcd8fc"/><rect x="20.73" y="290.15" width="20.73" height="20.73" fill="#3187f6"/><polygon points="20.73,290.15 41.46,290.15 41.46,310.88" fill="#aed0fc"/><rect x="41.45" y="290.15" width="20.73" height="20.73" fill="#599ef8"/><polygon points="41.45,290.15 62.18000000000001,310.88 41.45,310.88" fill="#bcd4fb"/><rect x="766.825" y="269.425" width="41.45" height="41.45" fill="#ffffff"/><rect x="766.83" y="269.43" width="20.73" height="20.73" fill="#d3e6fd"/><polygon points="766.83,269.43 787.5600000000001,269.43 787.5600000000001,290.16" fill="#679df6"/><rect x="787.55" y="269.43" width="20.73" height="20.73" fill="#92b9f9"/><polygon points="787.55,269.43 808.28,269.43 808.28,290.16" fill="#c8dcfc"/><rect x="766.83" y="290.15" width="20.73" height="20.73" fill="#8ab4f8"/><polygon points="766.83,290.15 787.5600000000001,290.15 787.5600000000001,310.88" fill="#3f8ff7"/><rect x="787.55" y="290.15" width="20.73" height="20.73" fill="#eaf3fe"/><polygon points="808.28,290.15 808.28,310.88 787.55,310.88" fill="#93baf9"/><rect x="352.32500000000005" y="352.32500000000005" width="41.45" height="41.45" fill="#ffffff"/><rect x="352.33" y="352.33" width="20.73" height="20.73" fill="#ebf4fe"/><polygon points="352.33,352.33 373.06,373.06 352.33,373.06" fill="#afccfb"/><rect x="373.05" y="352.33" width="20.73" height="20.73" fill="#a1c8fb"/><polygon points="373.05,352.33 393.78000000000003,352.33 393.78000000000003,373.06" fill="#92b9f9"/><rect x="352.33" y="373.05" width="20.73" height="20.73" fill="#8ebdfa"/><polygon points="373.06,373.05 373.06,393.78000000000003 352.33,393.78000000000003" fill="#83b0f8"/><rect x="373.05" y="373.05" width="20.73" height="20.73" fill="#f3f8fe"/><polygon points="373.05,373.05 393.78000000000003,373.05 373.05,393.78000000000003" fill="#1979f5"/><rect x="435.225" y="352.32500000000005" width="41.45" height="41.45" fill="#ffffff"/><rect x="435.23" y="352.33" width="20.73" height="20.73" fill="#e0edfe"/><polygon points="435.23,352.33 455.96000000000004,352.33 455.96000000000004,373.06" fill="#77a8f7"/><rect x="455.95" y="352.33" width="20.73" height="20.73" fill="#b2cdfb"/><polygon points="455.95,352.33 476.68,352.33 455.95,373.06" fill="#508ff5"/><rect x="435.23" y="373.05" width="20.73" height="20.73" fill="#e8f2fe"/><polygon points="435.23,373.05 455.96000000000004,393.78000000000003 435.23,393.78000000000003" fill="#82aff8"/><rect x="455.95" y="373.05" width="20.73" height="20.73" fill="#c1d7fc"/><polygon points="455.95,373.05 476.68,373.05 476.68,393.78000000000003" fill="#69a7f9"/><rect x="186.525" y="435.225" width="41.45" height="41.45" fill="#ffffff"/><rect x="186.53" y="435.23" width="20.73" height="20.73" fill="#7fb4fa"/><polygon points="207.26,435.23 207.26,455.96000000000004 186.53,455.96000000000004" fill="#b8d6fc"/><rect x="207.25" y="435.23" width="20.73" height="20.73" fill="#eaf2fe"/><polygon points="207.25,435.23 227.98,435.23 207.25,455.96000000000004" fill="#c9dcfc"/><rect x="186.53" y="455.95" width="20.73" height="20.73" fill="#5a95f6"/><polygon points="207.26,455.95 207.26,476.68 186.53,476.68" fill="#d7e5fd"/><rect x="207.25" y="455.95" width="20.73" height="20.73" fill="#b3d3fc"/><polygon points="207.25,455.95 227.98,455.95 207.25,476.68" fill="#3187f6"/><rect x="352.32500000000005" y="435.225" width="41.45" height="41.45" fill="#ffffff"/><rect x="352.33" y="435.23" width="20.73" height="20.73" fill="#dae7fd"/><polygon points="352.33,435.23 373.06,435.23 373.06,455.96000000000004" fill="#5290f5"/><rect x="373.05" y="435.23" width="20.73" height="20.73" fill="#7babf8"/><polygon points="373.05,435.23 393.78000000000003,435.23 393.78000000000003,455.96000000000004" fill="#5d97f6"/><rect x="352.33" y="455.95" width="20.73" height="20.73" fill="#75aff9"/><polygon points="352.33,455.95 373.06,455.95 352.33,476.68" fill="#e9f1fe"/><rect x="373.05" y="455.95" width="20.73" height="20.73" fill="#eff5fe"/><polygon points="373.05,455.95 393.78000000000003,455.95 373.05,476.68" fill="#7eadf8"/><rect x="186.525" y="518.125" width="41.45" height="41.45" fill="#ffffff"/><rect x="186.53" y="518.13" width="20.73" height="20.73" fill="#3388f6"/><polygon points="207.26,518.13 207.26,538.86 186.53,538.86" fill="#7db3f9"/><rect x="207.25" y="518.13" width="20.73" height="20.73" fill="#f8fbff"/><polygon points="207.25,518.13 227.98,518.13 227.98,538.86" fill="#8ebdfa"/><rect x="186.53" y="538.85" width="20.73" height="20.73" fill="#87b2f8"/><polygon points="186.53,538.85 207.26,538.85 207.26,559.58" fill="#b4cffb"/><rect x="207.25" y="538.85" width="20.73" height="20.73" fill="#96bcf9"/><polygon points="207.25,538.85 227.98,538.85 207.25,559.58" fill="#d7e8fd"/><rect x="1015.5250000000001" y="518.125" width="41.45" height="41.45" fill="#ffffff"/><rect x="1015.53" y="518.13" width="20.73" height="20.73" fill="#cee2fd"/><polygon points="1015.53,518.13 1036.26,518.13 1036.26,538.86" fill="#70a3f7"/><rect x="1036.25" y="518.13" width="20.73" height="20.73" fill="#66a6f8"/><polygon points="1036.25,518.13 1056.98,518.13 1056.98,538.86" fill="#eef5fe"/><rect x="1015.53" y="538.85" width="20.73" height="20.73" fill="#d5e7fd"/><polygon points="1015.53,538.85 1036.26,538.85 1015.53,559.58" fill="#569df8"/><rect x="1036.25" y="538.85" width="20.73" height="20.73" fill="#7ab2f9"/><polygon points="1036.25,538.85 1056.98,538.85 1056.98,559.58" fill="#d5e4fd"/><rect x="766.825" y="601.0250000000001" width="41.45" height="41.45" fill="#ffffff"/><rect x="766.83" y="601.03" width="20.73" height="20.73" fill="#8fbefa"/><polygon points="766.83,601.03 787.5600000000001,601.03 766.83,621.76" fill="#f3f7fe"/><rect x="787.55" y="601.03" width="20.73" height="20.73" fill="#f5f9ff"/><polygon points="787.55,601.03 808.28,621.76 787.55,621.76" fill="#5793f6"/><rect x="766.83" y="621.75" width="20.73" height="20.73" fill="#78b1f9"/><polygon points="766.83,621.75 787.5600000000001,621.75 766.83,642.48" fill="#2f85f6"/><rect x="787.55" y="621.75" width="20.73" height="20.73" fill="#a0c8fb"/><polygon points="787.55,621.75 808.28,642.48 787.55,642.48" fill="#95c1fa"/><rect x="932.63" y="601.03" width="41.45" height="41.45" fill="#f6faff"/><polygon points="974.08,601.03 974.08,642.48 932.63,642.48" fill="#b6d0fb"/><rect x="1098.43" y="601.03" width="41.45" height="41.45" fill="#aac9fa"/><polygon points="1098.43,601.03 1139.88,601.03 1139.88,642.48" fill="#99bef9"/><rect x="269.43" y="683.93" width="41.45" height="41.45" fill="#8fb8f9"/><polygon points="310.88,683.93 310.88,725.38 269.43,725.38" fill="#669df6"/><rect x="435.23" y="683.93" width="41.45" height="41.45" fill="#9abef9"/><polygon points="435.23,683.93 476.68,683.93 435.23,725.38" fill="#9bbff9"/><rect x="932.6250000000001" y="683.9250000000001" width="41.45" height="41.45" fill="#ffffff"/><rect x="932.63" y="683.93" width="20.73" height="20.73" fill="#eef4fe"/><polygon points="932.63,683.93 953.36,683.93 932.63,704.66" fill="#fcfdff"/><rect x="953.35" y="683.93" width="20.73" height="20.73" fill="#cce1fd"/><polygon points="953.35,683.93 974.08,704.66 953.35,704.66" fill="#a4c5fa"/><rect x="932.63" y="704.65" width="20.73" height="20.73" fill="#a1c8fb"/><polygon points="932.63,704.65 953.36,725.38 932.63,725.38" fill="#c9e0fd"/><rect x="953.35" y="704.65" width="20.73" height="20.73" fill="#62a3f8"/><polygon points="953.35,704.65 974.08,704.65 974.08,725.38" fill="#cee2fd"/><rect x="103.625" y="766.825" width="41.45" height="41.45" fill="#ffffff"/><rect x="103.63" y="766.83" width="20.73" height="20.73" fill="#eaf1fe"/><polygon points="103.63,766.83 124.36,766.83 124.36,787.5600000000001" fill="#d6e5fd"/><rect x="124.35" y="766.83" width="20.73" height="20.73" fill="#e2eefe"/><polygon points="124.35,766.83 145.07999999999998,766.83 124.35,787.5600000000001" fill="#b5d0fb"/><rect x="103.63" y="787.55" width="20.73" height="20.73" fill="#70abf9"/><polygon points="103.63,787.55 124.36,787.55 124.36,808.28" fill="#3a8cf7"/><rect x="124.35" y="787.55" width="20.73" height="20.73" fill="#6fa3f7"/><polygon points="124.35,787.55 145.07999999999998,787.55 124.35,808.28" fill="#7eb4fa"/><rect x="932.6250000000001" y="766.825" width="41.45" height="41.45" fill="#ffffff"/><rect x="932.63" y="766.83" width="20.73" height="20.73" fill="#eff6fe"/><polygon points="932.63,766.83 953.36,766.83 953.36,787.5600000000001" fill="#539bf8"/><rect x="953.35" y="766.83" width="20.73" height="20.73" fill="#4c97f7"/><polygon points="953.35,766.83 974.08,766.83 953.35,787.5600000000001" fill="#eff5fe"/><rect x="932.63" y="787.55" width="20.73" height="20.73" fill="#2f86f6"/><polygon points="932.63,787.55 953.36,787.55 932.63,808.28" fill="#e1eefe"/><rect x="953.35" y="787.55" width="20.73" height="20.73" fill="#b2d2fc"/><polygon points="953.35,787.55 974.08,787.55 974.08,808.28" fill="#659df6"/></g></svg>